0
SECTION
2
HEADER
9
$INSUNITS
70
4
9
$ACADVER
1
AC1014
9
$HANDSEED
5
FFFF
0
ENDSEC
0
SECTION
2
TABLES
0
TABLE
2
VPORT
5
8
100
AcDbSymbolTable
0
ENDTAB
0
TABLE
2
LTYPE
5
5
100
AcDbSymbolTable
70
2
0
LTYPE
5
14
100
AcDbSymbolTableRecord
100
AcDbLinetypeTableRecord
2
BYBLOCK
70
0
0
LTYPE
5
15
100
AcDbSymbolTableRecord
100
AcDbLinetypeTableRecord
2
BYLAYER
70
0
0
ENDTAB
0
TABLE
2
LAYER
5
2
100
AcDbSymbolTable
70
3
0
LAYER
5
50
100
AcDbSymbolTableRecord
100
AcDbLayerTableRecord
2
0
70
0
6
CONTINUOUS
0
LAYER
5
51
100
AcDbSymbolTableRecord
100
AcDbLayerTableRecord
2
CUTOUTS
70
0
62
1
6
CONTINUOUS
0
LAYER
5
52
100
AcDbSymbolTableRecord
100
AcDbLayerTableRecord
2
PERIMETER
70
0
62
5
6
CONTINUOUS
0
ENDTAB
0
TABLE
2
STYLE
5
3
100
AcDbSymbolTable
70
1
0
STYLE
5
11
100
AcDbSymbolTableRecord
100
AcDbTextStyleTableRecord
2
STANDARD
70
0
0
ENDTAB
0
TABLE
2
VIEW
5
6
100
AcDbSymbolTable
0
ENDTAB
0
TABLE
2
UCS
5
7
100
AcDbSymbolTable
0
ENDTAB
0
TABLE
2
APPID
5
9
100
AcDbSymbolTable
70
1
0
APPID
5
12
100
AcDbSymbolTableRecord
100
AcDbRegAppTableRecord
2
ACAD
70
0
0
ENDTAB
0
TABLE
2
DIMSTYLE
5
A
100
AcDbSymbolTable
0
ENDTAB
0
TABLE
2
BLOCK_RECORD
5
1
100
AcDbSymbolTable
70
2
0
BLOCK_RECORD
5
1F
100
AcDbSymbolTableRecord
100
AcDbBlockTableRecord
2
*MODEL_SPACE
0
BLOCK_RECORD
5
1B
100
AcDbSymbolTableRecord
100
AcDbBlockTableRecord
2
*PAPER_SPACE
0
ENDTAB
0
ENDSEC
0
SECTION
2
BLOCKS
0
BLOCK
5
20
100
AcDbEntity
100
AcDbBlockBegin
2
*MODEL_SPACE
0
ENDBLK
5
21
100
AcDbEntity
100
AcDbBlockEnd
0
BLOCK
5
1C
100
AcDbEntity
100
AcDbBlockBegin
2
*PAPER_SPACE
0
ENDBLK
5
1D
100
AcDbEntity
100
AcDbBlockEnd
0
ENDSEC
0
SECTION
2
ENTITIES
0
CIRCLE
5
100
100
AcDbEntity
8
CUTOUTS
100
AcDbCircle
10
-37.499999999999972
20
4.4408920985006262e-15
30
0
40
5.9250000000000069
210
0
220
0
230
1
0
LINE
5
101
100
AcDbEntity
8
CUTOUTS
100
AcDbLine
10
25.425000000000022
20
-5.9250000000000309
30
0
11
22.575000000000031
21
-5.9250000000000309
31
0
0
LINE
5
102
100
AcDbEntity
8
CUTOUTS
100
AcDbLine
10
22.575000000000031
20
-5.9250000000000309
30
0
11
22.575000000000031
21
11.924999999999971
31
0
0
LINE
5
103
100
AcDbEntity
8
CUTOUTS
100
AcDbLine
10
22.575000000000031
20
11.924999999999971
30
0
11
25.425000000000022
21
11.924999999999971
31
0
0
LINE
5
104
100
AcDbEntity
8
CUTOUTS
100
AcDbLine
10
25.425000000000022
20
11.924999999999971
30
0
11
25.425000000000022
21
-5.9250000000000309
31
0
0
LINE
5
105
100
AcDbEntity
8
CUTOUTS
100
AcDbLine
10
-3.1392857142856845
20
-5.9250000000000309
30
0
11
-3.1392857142856845
21
11.924999999999971
31
0
0
LINE
5
106
100
AcDbEntity
8
CUTOUTS
100
AcDbLine
10
-3.1392857142856845
20
11.924999999999971
30
0
11
-0.28928571428568528
21
11.924999999999971
31
0
0
LINE
5
107
100
AcDbEntity
8
CUTOUTS
100
AcDbLine
10
-0.28928571428568528
20
11.924999999999971
30
0
11
-0.28928571428568528
21
-5.9250000000000309
31
0
0
LINE
5
108
100
AcDbEntity
8
CUTOUTS
100
AcDbLine
10
-0.28928571428568528
20
-5.9250000000000309
30
0
11
-3.1392857142856845
21
-5.9250000000000309
31
0
0
LINE
5
109
100
AcDbEntity
8
CUTOUTS
100
AcDbLine
10
3.2892857142857435
20
11.924999999999971
30
0
11
6.1392857142857427
21
11.924999999999971
31
0
0
LINE
5
10A
100
AcDbEntity
8
CUTOUTS
100
AcDbLine
10
6.1392857142857427
20
11.924999999999971
30
0
11
6.1392857142857427
21
-5.9250000000000309
31
0
0
LINE
5
10B
100
AcDbEntity
8
CUTOUTS
100
AcDbLine
10
6.1392857142857427
20
-5.9250000000000309
30
0
11
3.2892857142857435
21
-5.9250000000000309
31
0
0
LINE
5
10C
100
AcDbEntity
8
CUTOUTS
100
AcDbLine
10
3.2892857142857435
20
-5.9250000000000309
30
0
11
3.2892857142857435
21
11.924999999999971
31
0
0
LINE
5
10D
100
AcDbEntity
8
CUTOUTS
100
AcDbLine
10
18.996428571428602
20
-5.9250000000000309
30
0
11
16.146428571428604
21
-5.9250000000000309
31
0
0
LINE
5
10E
100
AcDbEntity
8
CUTOUTS
100
AcDbLine
10
16.146428571428604
20
-5.9250000000000309
30
0
11
16.146428571428604
21
11.924999999999971
31
0
0
LINE
5
10F
100
AcDbEntity
8
CUTOUTS
100
AcDbLine
10
16.146428571428604
20
11.924999999999971
30
0
11
18.996428571428602
21
11.924999999999971
31
0
0
LINE
5
110
100
AcDbEntity
8
CUTOUTS
100
AcDbLine
10
18.996428571428602
20
11.924999999999971
30
0
11
18.996428571428602
21
-5.9250000000000309
31
0
0
LINE
5
111
100
AcDbEntity
8
CUTOUTS
100
AcDbLine
10
-6.717857142857115
20
-5.9250000000000309
30
0
11
-9.5678571428571146
21
-5.9250000000000309
31
0
0
LINE
5
112
100
AcDbEntity
8
CUTOUTS
100
AcDbLine
10
-9.5678571428571146
20
-5.9250000000000309
30
0
11
-9.5678571428571146
21
11.924999999999971
31
0
0
LINE
5
113
100
AcDbEntity
8
CUTOUTS
100
AcDbLine
10
-9.5678571428571146
20
11.924999999999971
30
0
11
-6.717857142857115
21
11.924999999999971
31
0
0
LINE
5
114
100
AcDbEntity
8
CUTOUTS
100
AcDbLine
10
-6.717857142857115
20
11.924999999999971
30
0
11
-6.717857142857115
21
-5.9250000000000309
31
0
0
LINE
5
115
100
AcDbEntity
8
CUTOUTS
100
AcDbLine
10
-19.574999999999974
20
11.924999999999972
30
0
11
-19.574999999999974
21
-5.9250000000000309
31
0
0
LINE
5
116
100
AcDbEntity
8
CUTOUTS
100
AcDbLine
10
-19.574999999999974
20
-5.9250000000000309
30
0
11
-22.424999999999976
21
-5.9250000000000327
31
0
0
LINE
5
117
100
AcDbEntity
8
CUTOUTS
100
AcDbLine
10
-22.424999999999976
20
-5.9250000000000327
30
0
11
-22.424999999999976
21
11.924999999999972
31
0
0
LINE
5
118
100
AcDbEntity
8
CUTOUTS
100
AcDbLine
10
-22.424999999999976
20
11.924999999999972
30
0
11
-19.574999999999974
21
11.924999999999972
31
0
0
LINE
5
119
100
AcDbEntity
8
CUTOUTS
100
AcDbLine
10
-15.996428571428545
20
-5.9250000000000309
30
0
11
-15.996428571428545
21
11.924999999999971
31
0
0
LINE
5
11A
100
AcDbEntity
8
CUTOUTS
100
AcDbLine
10
-15.996428571428545
20
11.924999999999971
30
0
11
-13.146428571428544
21
11.924999999999971
31
0
0
LINE
5
11B
100
AcDbEntity
8
CUTOUTS
100
AcDbLine
10
-13.146428571428544
20
11.924999999999971
30
0
11
-13.146428571428544
21
-5.9250000000000309
31
0
0
LINE
5
11C
100
AcDbEntity
8
CUTOUTS
100
AcDbLine
10
-13.146428571428544
20
-5.9250000000000309
30
0
11
-15.996428571428545
21
-5.9250000000000309
31
0
0
LINE
5
11D
100
AcDbEntity
8
CUTOUTS
100
AcDbLine
10
9.7178571428571718
20
-5.9250000000000309
30
0
11
9.7178571428571718
21
11.924999999999971
31
0
0
LINE
5
11E
100
AcDbEntity
8
CUTOUTS
100
AcDbLine
10
9.7178571428571718
20
11.924999999999971
30
0
11
12.567857142857171
21
11.924999999999971
31
0
0
LINE
5
11F
100
AcDbEntity
8
CUTOUTS
100
AcDbLine
10
12.567857142857171
20
11.924999999999971
30
0
11
12.567857142857171
21
-5.9250000000000309
31
0
0
LINE
5
120
100
AcDbEntity
8
CUTOUTS
100
AcDbLine
10
12.567857142857171
20
-5.9250000000000309
30
0
11
9.7178571428571718
21
-5.9250000000000309
31
0
0
ARC
5
121
100
AcDbEntity
8
CUTOUTS
100
AcDbCircle
10
-52.393255459817325
20
-7.5000000000000231
30
0
40
5.4250000000003284
210
-0
220
0
230
1
100
AcDbArc
50
-7.1474916058042606
51
7.1474916058041975
0
LINE
5
122
100
AcDbEntity
8
CUTOUTS
100
AcDbLine
10
-48.020041538683024
20
-6.8250000000000108
30
0
11
-47.01041234488229
21
-6.8250000000000108
31
0
0
ARC
5
123
100
AcDbEntity
8
CUTOUTS
100
AcDbCircle
10
-52.393255459817325
20
-7.5000000000000231
30
0
40
4.4250000000003267
210
0
220
-0
230
1
100
AcDbArc
50
8.7742896478460395
51
171.22571035215398
0
LINE
5
124
100
AcDbEntity
8
CUTOUTS
100
AcDbLine
10
-57.776098574751707
20
-6.8250000000000108
30
0
11
-56.766469380951634
21
-6.8250000000000117
31
0
0
ARC
5
125
100
AcDbEntity
8
CUTOUTS
100
AcDbCircle
10
-52.393255459817325
20
-7.5000000000000231
30
0
40
5.4249999999996765
210
0
220
0
230
1
100
AcDbArc
50
172.85250839419496
51
187.14749160580484
0
LINE
5
126
100
AcDbEntity
8
CUTOUTS
100
AcDbLine
10
-56.76646938095098
20
-8.1750000000000167
30
0
11
-57.776098574751714
21
-8.1750000000000131
31
0
0
ARC
5
127
100
AcDbEntity
8
CUTOUTS
100
AcDbCircle
10
-52.393255459817325
20
-7.5000000000000231
30
0
40
4.4249999999996836
210
0
220
0
230
1
100
AcDbArc
50
188.77428964784707
51
351.22571035215265
0
LINE
5
128
100
AcDbEntity
8
CUTOUTS
100
AcDbLine
10
-47.01041234488229
20
-8.1750000000000362
30
0
11
-48.020041538683678
21
-8.1750000000000362
31
0
0
LINE
5
129
100
AcDbEntity
8
PERIMETER
100
AcDbLine
10
52.574999999999989
20
19.745000000000008
30
0
11
37.425000000000004
21
19.745000000000008
31
0
0
LINE
5
12A
100
AcDbEntity
8
PERIMETER
100
AcDbLine
10
37.425000000000004
20
19.745000000000008
30
0
11
37.425000000000026
21
16.575000000000006
31
0
0
LINE
5
12B
100
AcDbEntity
8
PERIMETER
100
AcDbLine
10
37.425000000000026
20
16.575000000000006
30
0
11
7.575000000000025
21
16.575000000000006
31
0
0
LINE
5
12C
100
AcDbEntity
8
PERIMETER
100
AcDbLine
10
7.575000000000025
20
16.575000000000006
30
0
11
7.5749999999999948
21
19.745000000000008
31
0
0
LINE
5
12D
100
AcDbEntity
8
PERIMETER
100
AcDbLine
10
7.5749999999999948
20
19.745000000000008
30
0
11
-7.575000000000002
21
19.745000000000008
31
0
0
LINE
5
12E
100
AcDbEntity
8
PERIMETER
100
AcDbLine
10
-7.575000000000002
20
19.745000000000008
30
0
11
-7.5749999999999797
21
16.575000000000006
31
0
0
LINE
5
12F
100
AcDbEntity
8
PERIMETER
100
AcDbLine
10
-7.5749999999999797
20
16.575000000000006
30
0
11
-37.424999999999969
21
16.575000000000006
31
0
0
LINE
5
130
100
AcDbEntity
8
PERIMETER
100
AcDbLine
10
-37.424999999999969
20
16.575000000000006
30
0
11
-37.425000000000004
21
19.745000000000008
31
0
0
LINE
5
131
100
AcDbEntity
8
PERIMETER
100
AcDbLine
10
-37.425000000000004
20
19.745000000000008
30
0
11
-52.574999999999996
21
19.745000000000008
31
0
0
LINE
5
132
100
AcDbEntity
8
PERIMETER
100
AcDbLine
10
-52.574999999999996
20
19.745000000000008
30
0
11
-52.574999999999974
21
16.575000000000006
31
0
0
LINE
5
133
100
AcDbEntity
8
PERIMETER
100
AcDbLine
10
-52.574999999999974
20
16.575000000000006
30
0
11
-65.075000000000003
21
16.575000000000003
31
0
0
LINE
5
134
100
AcDbEntity
8
PERIMETER
100
AcDbLine
10
-65.075000000000003
20
16.575000000000003
30
0
11
-65.075000000000003
21
7.5749999999999975
31
0
0
LINE
5
135
100
AcDbEntity
8
PERIMETER
100
AcDbLine
10
-65.075000000000003
20
7.5749999999999975
30
0
11
-68.245000000000005
21
7.5749999999999709
31
0
0
LINE
5
136
100
AcDbEntity
8
PERIMETER
100
AcDbLine
10
-68.245000000000005
20
7.5749999999999709
30
0
11
-68.245000000000005
21
-7.5750000000000348
31
0
0
LINE
5
137
100
AcDbEntity
8
PERIMETER
100
AcDbLine
10
-68.245000000000005
20
-7.5750000000000348
30
0
11
-65.075000000000003
21
-7.5750000000000082
31
0
0
LINE
5
138
100
AcDbEntity
8
PERIMETER
100
AcDbLine
10
-65.075000000000003
20
-7.5750000000000082
30
0
11
-65.075000000000003
21
-16.575000000000003
31
0
0
LINE
5
139
100
AcDbEntity
8
PERIMETER
100
AcDbLine
10
-65.075000000000003
20
-16.575000000000003
30
0
11
-52.574999999999974
21
-16.574999999999996
31
0
0
LINE
5
13A
100
AcDbEntity
8
PERIMETER
100
AcDbLine
10
-52.574999999999974
20
-16.574999999999996
30
0
11
-52.574999999999996
21
-19.745000000000008
31
0
0
LINE
5
13B
100
AcDbEntity
8
PERIMETER
100
AcDbLine
10
-52.574999999999996
20
-19.745000000000008
30
0
11
-37.425000000000004
21
-19.745000000000008
31
0
0
LINE
5
13C
100
AcDbEntity
8
PERIMETER
100
AcDbLine
10
-37.425000000000004
20
-19.745000000000008
30
0
11
-37.424999999999976
21
-16.574999999999996
31
0
0
LINE
5
13D
100
AcDbEntity
8
PERIMETER
100
AcDbLine
10
-37.424999999999976
20
-16.574999999999996
30
0
11
-7.5749999999999762
21
-16.574999999999996
31
0
0
LINE
5
13E
100
AcDbEntity
8
PERIMETER
100
AcDbLine
10
-7.5749999999999762
20
-16.574999999999996
30
0
11
-7.5749999999999993
21
-19.745000000000008
31
0
0
LINE
5
13F
100
AcDbEntity
8
PERIMETER
100
AcDbLine
10
-7.5749999999999993
20
-19.745000000000008
30
0
11
7.5749999999999975
21
-19.745000000000008
31
0
0
LINE
5
140
100
AcDbEntity
8
PERIMETER
100
AcDbLine
10
7.5749999999999975
20
-19.745000000000008
30
0
11
7.5750000000000277
21
-16.574999999999996
31
0
0
LINE
5
141
100
AcDbEntity
8
PERIMETER
100
AcDbLine
10
7.5750000000000277
20
-16.574999999999996
30
0
11
37.425000000000026
21
-16.574999999999996
31
0
0
LINE
5
142
100
AcDbEntity
8
PERIMETER
100
AcDbLine
10
37.425000000000026
20
-16.574999999999996
30
0
11
37.425000000000004
21
-19.745000000000008
31
0
0
LINE
5
143
100
AcDbEntity
8
PERIMETER
100
AcDbLine
10
37.425000000000004
20
-19.745000000000008
30
0
11
52.574999999999996
21
-19.745000000000008
31
0
0
LINE
5
144
100
AcDbEntity
8
PERIMETER
100
AcDbLine
10
52.574999999999996
20
-19.745000000000008
30
0
11
52.575000000000031
21
-16.574999999999996
31
0
0
LINE
5
145
100
AcDbEntity
8
PERIMETER
100
AcDbLine
10
52.575000000000031
20
-16.574999999999996
30
0
11
56.525000000000027
21
-16.575000000000003
31
0
0
LINE
5
146
100
AcDbEntity
8
PERIMETER
100
AcDbLine
10
56.525000000000027
20
-16.575000000000003
30
0
11
56.525000000000027
21
-14.200000000000019
31
0
0
ARC
5
147
100
AcDbEntity
8
PERIMETER
100
AcDbCircle
10
58.750000000000014
20
-14.200000000000024
30
0
40
2.2249999999999925
210
0
220
-0
230
1
100
AcDbArc
50
0
51
180
0
LINE
5
148
100
AcDbEntity
8
PERIMETER
100
AcDbLine
10
60.975000000000009
20
-14.200000000000019
30
0
11
60.975000000000009
21
-16.575000000000003
31
0
0
LINE
5
149
100
AcDbEntity
8
PERIMETER
100
AcDbLine
10
60.975000000000009
20
-16.575000000000003
30
0
11
65.075000000000003
21
-16.575000000000021
31
0
0
LINE
5
14A
100
AcDbEntity
8
PERIMETER
100
AcDbLine
10
65.075000000000003
20
-16.575000000000021
30
0
11
65.075000000000003
21
-7.5750000000000011
31
0
0
LINE
5
14B
100
AcDbEntity
8
PERIMETER
100
AcDbLine
10
65.075000000000003
20
-7.5750000000000011
30
0
11
68.245000000000005
21
-7.5750000000000277
31
0
0
LINE
5
14C
100
AcDbEntity
8
PERIMETER
100
AcDbLine
10
68.245000000000005
20
-7.5750000000000277
30
0
11
68.245000000000005
21
7.574999999999978
31
0
0
LINE
5
14D
100
AcDbEntity
8
PERIMETER
100
AcDbLine
10
68.245000000000005
20
7.574999999999978
30
0
11
65.075000000000003
21
7.5750000000000046
31
0
0
LINE
5
14E
100
AcDbEntity
8
PERIMETER
100
AcDbLine
10
65.075000000000003
20
7.5750000000000046
30
0
11
65.075000000000003
21
16.575000000000003
31
0
0
LINE
5
14F
100
AcDbEntity
8
PERIMETER
100
AcDbLine
10
65.075000000000003
20
16.575000000000003
30
0
11
52.575000000000031
21
16.575000000000006
31
0
0
LINE
5
150
100
AcDbEntity
8
PERIMETER
100
AcDbLine
10
52.575000000000031
20
16.575000000000006
30
0
11
52.574999999999989
21
19.745000000000008
31
0
0
ENDSEC
0
SECTION
2
OBJECTS
0
DICTIONARY
5
C
100
AcDbDictionary
3
ACAD_GROUP
350
D
3
ACAD_MLINESTYLE
350
17
0
DICTIONARY
5
D
100
AcDbDictionary
0
DICTIONARY
5
1A
330
C
100
AcDbDictionary
0
DICTIONARY
5
17
100
AcDbDictionary
0
ENDSEC
0
EOF
